<?xml version="1.0" encoding="utf-8"?>
<!-- Generator: Adobe Illustrator 20.1.0, SVG Export Plug-In . SVG Version: 6.00 Build 0)  -->
<svg version="1.1" id="Livello_1" xmlns="http://www.w3.org/2000/svg" xmlns:xlink="http://www.w3.org/1999/xlink" x="0px" y="0px"
	 viewBox="0 0 58.3 63.8" style="enable-background:new 0 0 58.3 63.8;" xml:space="preserve">
<g>
	<path d="M28.3,52.8V35.7c0-0.5,0-1,0.1-1.4c0.1-0.4,0.2-1,0.4-1.8c-0.7,0.7-1.1,1.1-1.3,1.2c-0.3,0.2-0.7,0.4-1.3,0.8l-15.2,8.8
		L10.3,42l15.2-8.8c0.5-0.3,0.9-0.4,1.3-0.6s1-0.3,1.8-0.6c-0.9-0.3-1.5-0.6-1.8-0.7c-0.4-0.1-0.8-0.3-1.3-0.6l-15.3-8.8l0.8-1.4
		l15.3,8.9c0.3,0.1,0.5,0.3,0.6,0.4c0.2,0.1,0.3,0.3,0.5,0.4c0.2,0.2,0.3,0.3,0.6,0.6c0.2,0.2,0.5,0.5,0.9,0.9
		c-0.2-0.9-0.3-1.5-0.4-2c-0.1-0.4-0.1-0.9-0.1-1.5V11.1h1.5v17.1c0,0.6,0,1.1,0,1.5c0,0.4-0.2,1-0.4,2c0.7-0.7,1.2-1.2,1.5-1.4
		c0.3-0.2,0.7-0.5,1.2-0.8l15.2-8.9l0.8,1.4l-15.2,8.8c-0.5,0.3-0.9,0.5-1.3,0.7c-0.4,0.2-0.9,0.4-1.7,0.6c0.8,0.3,1.4,0.4,1.8,0.6
		s0.7,0.3,1.2,0.6L48.1,42l-0.8,1.3l-15.3-8.8c-0.3-0.2-0.5-0.3-0.6-0.4c-0.2-0.1-0.4-0.2-0.5-0.3c-0.2-0.1-0.4-0.3-0.6-0.5
		c-0.3-0.2-0.6-0.5-0.9-0.9c0.1,0.9,0.3,1.5,0.3,1.9s0.1,0.8,0.1,1.4v17.1H28.3z"/>
</g>
</svg>
