<?xml version="1.0" encoding="utf-8"?>
<!-- Generator: Adobe Illustrator 20.1.0, SVG Export Plug-In . SVG Version: 6.00 Build 0)  -->
<svg version="1.1" id="Livello_1" xmlns="http://www.w3.org/2000/svg" xmlns:xlink="http://www.w3.org/1999/xlink" x="0px" y="0px"
	 viewBox="0 0 564.8 107.8" style="enable-background:new 0 0 564.8 107.8;" xml:space="preserve">
<g>
	<path d="M68.2,55.7c-0.6,7.6-3.4,13.7-8.5,18.1c-5.1,4.4-11.8,6.6-20.1,6.6c-9.1,0-16.3-3.1-21.5-9.2c-5.2-6.1-7.8-14.6-7.8-25.3
		v-4.3c0-6.8,1.2-12.9,3.6-18.1c2.4-5.2,5.9-9.2,10.3-12c4.5-2.8,9.7-4.2,15.6-4.2c8.2,0,14.8,2.2,19.8,6.6c5,4.4,7.9,10.6,8.7,18.5
		H53.6c-0.4-4.6-1.6-7.9-3.8-10c-2.2-2.1-5.5-3.1-10-3.1c-4.9,0-8.5,1.8-11,5.2c-2.4,3.5-3.7,8.9-3.7,16.3v5.4
		c0,7.7,1.2,13.3,3.5,16.8c2.3,3.5,6,5.3,11,5.3c4.5,0,7.9-1,10.1-3.1c2.2-2.1,3.5-5.3,3.8-9.6H68.2z"/>
	<path d="M74.7,52.4c0-5.2,1-9.9,3-14c2-4.1,4.9-7.3,8.7-9.5c3.8-2.2,8.2-3.4,13.2-3.4c7.1,0,12.9,2.2,17.5,6.5
		c4.5,4.4,7,10.3,7.5,17.8l0.1,3.6c0,8.1-2.3,14.6-6.8,19.5c-4.5,4.9-10.6,7.3-18.2,7.3S86,77.9,81.5,73s-6.8-11.5-6.8-19.9V52.4z
		 M88.8,53.4c0,5,0.9,8.9,2.8,11.5c1.9,2.7,4.6,4,8.1,4c3.4,0,6.1-1.3,8-3.9c1.9-2.6,2.9-6.8,2.9-12.6c0-4.9-1-8.7-2.9-11.4
		c-1.9-2.7-4.6-4.1-8.1-4.1c-3.5,0-6.1,1.3-8,4C89.7,43.6,88.8,47.8,88.8,53.4z"/>
	<path d="M146.6,26.5l0.4,5.9c3.7-4.6,8.8-6.9,15.2-6.9c6.8,0,11.5,2.7,14,8.1c3.7-5.4,9-8.1,15.9-8.1c5.7,0,10,1.7,12.8,5
		c2.8,3.3,4.2,8.4,4.2,15.1v33.7H195V45.7c0-3-0.6-5.2-1.8-6.6C192,37.7,190,37,187,37c-4.2,0-7.2,2-8.8,6.1l0,36.3h-14.1V45.7
		c0-3.1-0.6-5.3-1.8-6.6c-1.2-1.4-3.3-2.1-6.2-2.1c-4,0-6.9,1.7-8.7,5v37.4h-14.1V26.5H146.6z"/>
	<path d="M267.5,53.4c0,8.1-1.8,14.7-5.5,19.6c-3.7,4.9-8.7,7.3-15,7.3c-5.3,0-9.7-1.9-12.9-5.6v24.9H220V26.5h13.1l0.5,5.2
		c3.4-4.1,7.9-6.2,13.4-6.2c6.5,0,11.6,2.4,15.2,7.2c3.6,4.8,5.4,11.5,5.4,19.9V53.4z M253.4,52.4c0-4.9-0.9-8.7-2.6-11.4
		c-1.7-2.7-4.3-4-7.6-4c-4.4,0-7.5,1.7-9.1,5.1v21.6c1.7,3.5,4.8,5.2,9.2,5.2C250,68.9,253.4,63.4,253.4,52.4z"/>
	<path d="M291.2,79.3H277v-75h14.2V79.3z"/>
	<path d="M327.1,80.3c-7.7,0-14.1-2.4-18.9-7.1c-4.9-4.8-7.3-11.1-7.3-19v-1.4c0-5.3,1-10.1,3.1-14.2c2.1-4.2,5-7.4,8.7-9.7
		c3.8-2.3,8-3.4,12.9-3.4c7.2,0,12.9,2.3,17.1,6.8c4.2,4.6,6.2,11,6.2,19.4v5.8h-33.6c0.5,3.5,1.8,6.2,4.1,8.3
		c2.3,2.1,5.2,3.1,8.7,3.1c5.4,0,9.7-2,12.7-5.9l6.9,7.8c-2.1,3-5,5.3-8.6,7S331.5,80.3,327.1,80.3z M325.5,36.9
		c-2.8,0-5.1,0.9-6.8,2.8c-1.7,1.9-2.9,4.6-3.3,8.1H335v-1.1c-0.1-3.1-0.9-5.6-2.5-7.3C330.8,37.8,328.5,36.9,325.5,36.9z"/>
</g>
<g>
	<path d="M363.5,77.9c-1.9-1.8-2.9-4.8-2.9-8.7V34.3h-6.2v-4.9c0.5-0.2,1.4-0.5,2.8-1s2.3-0.9,3-1.2c1.1-0.8,2-2.2,2.8-4.3
		c0.6-1.3,1.6-4.6,3.1-9.9h7.6l0.4,14h14.5v7.3h-14.4V61c0,3.5,0.1,6,0.3,7.5c0.2,1.5,0.6,2.4,1.2,2.8c0.6,0.4,1.7,0.6,3.3,0.6
		c1.6,0,3.2-0.2,4.9-0.5c1.7-0.3,3.1-0.8,4.3-1.3l1.8,5.3c-1.8,1.3-4.4,2.5-7.8,3.6s-6.7,1.6-10,1.6
		C368.4,80.7,365.4,79.8,363.5,77.9z"/>
	<path d="M400,103.2c-1.3-0.2-2.2-0.4-2.8-0.7V92.4c0.4,0.3,1.3,0.5,2.7,0.8c1.3,0.3,2.5,0.4,3.6,0.4c3.2,0,5.8-1,7.8-3.1
		c2.1-2.1,4-5.6,5.7-10.5h-5.1L394,33.8l-4.3-1.2V27h26.1v5.5l-6.9,1.1l8.5,26.3l3.4,11.2l2.9-11.2l7.8-26.3l-6-1.1V27h20.6v5.5
		l-4.7,1.1c-3.5,10.6-6.9,20.9-10.4,30.8c-3.4,9.9-5.4,15.4-6,16.6c-2,5.3-4,9.6-5.8,12.7c-1.8,3.2-4,5.6-6.6,7.2
		c-2.5,1.6-5.6,2.5-9.2,2.5C402.5,103.5,401.3,103.4,400,103.2z"/>
	<path d="M498.9,66.3c-2.2,4.4-5.4,8-9.6,10.6c-4.2,2.6-9.2,3.9-15.1,3.9c-1.3,0-2.6-0.1-3.9-0.3c-1.4-0.2-2.5-0.5-3.3-0.8l0.3,7.9
		v8.6l8.8,1.1v5.4h-28.2v-5.4l6.2-1.1V36l-6.2-1.7v-6.6l15.7-2h0.2l2.4,1.9V33c1.6-2,3.7-3.7,6.5-5.1c2.7-1.5,5.7-2.2,8.9-2.2
		c6,0,11,2.1,14.8,6.4c3.9,4.3,5.8,10.8,5.8,19.6C502.1,57,501,61.9,498.9,66.3z M471.2,34.8c-1.7,0.8-3,1.7-3.9,2.8v35.2
		c0.4,0.6,1.3,1.2,2.7,1.6c1.4,0.4,2.9,0.7,4.5,0.7c4.1,0,7.4-1.8,9.8-5.4c2.4-3.6,3.7-9.2,3.7-16.9c0-6.5-1-11.3-3.1-14.5
		c-2.1-3.2-4.8-4.8-8.3-4.8C474.7,33.6,472.9,34,471.2,34.8z"/>
	<path d="M515.2,73.5c-4.1-4.9-6.1-11.6-6.1-20.1c0-5.7,1.1-10.6,3.2-14.8c2.1-4.2,5.1-7.4,9-9.6c3.9-2.2,8.3-3.3,13.4-3.3
		c6.3,0,11.2,1.7,14.6,5c3.4,3.3,5.2,8.1,5.3,14.2c0,4.2-0.3,7.3-0.8,9.3h-30.9c0.3,5.8,1.6,10.2,4.1,13.4c2.5,3.2,6,4.8,10.5,4.8
		c2.5,0,5-0.4,7.6-1.2c2.6-0.8,4.7-1.8,6.2-2.9l2.4,5.2c-1.7,1.8-4.5,3.5-8.3,5.1c-3.8,1.6-7.7,2.3-11.6,2.3
		C525.5,80.9,519.3,78.4,515.2,73.5z M541.3,48.5c0.1-1.8,0.2-3.1,0.2-4.1c0-8.4-2.8-12.6-8.5-12.6c-3.1,0-5.5,1.2-7.2,3.7
		c-1.7,2.5-2.7,6.8-2.8,13H541.3z"/>
</g>
</svg>
