<?xml version="1.0" encoding="utf-8"?>
<!-- Generator: Adobe Illustrator 20.1.0, SVG Export Plug-In . SVG Version: 6.00 Build 0)  -->
<svg version="1.1" id="Livello_1" xmlns="http://www.w3.org/2000/svg" xmlns:xlink="http://www.w3.org/1999/xlink" x="0px" y="0px"
	 viewBox="0 0 200.4 162.6" style="enable-background:new 0 0 200.4 162.6;" xml:space="preserve">
<g>
	<path d="M115.2,146.4c18.4-14,31.5-27.3,39.3-39.9s11.7-26.5,11.7-41.7c-5.2,3.2-11.2,4.8-18,4.8c-9.2,0-16.7-3.1-22.5-9.3
		c-5.8-6.2-8.7-14.1-8.7-23.7c0-10.8,3.7-19.6,11.1-26.4C135.5,3.4,145.4,0,157.8,0c28.4,0,42.6,18.8,42.6,56.4
		c0,10-1.2,19.3-3.6,27.9c-2.4,8.6-6.3,17-11.7,25.2c-5.4,8.2-12.7,16.6-21.9,25.2c-9.2,8.6-20.6,17.9-34.2,27.9L115.2,146.4z
		 M0,146.4c18.4-14,31.5-27.3,39.3-39.9C47.1,93.9,51,80,51,64.8c-5.2,3.2-11.2,4.8-18,4.8c-9.2,0-16.7-3.1-22.5-9.3
		c-5.8-6.2-8.7-14.1-8.7-23.7c0-10.8,3.7-19.6,11.1-26.4C20.3,3.4,30.2,0,42.6,0C71,0,85.2,18.8,85.2,56.4c0,10-1.2,19.3-3.6,27.9
		c-2.4,8.6-6.3,17-11.7,25.2c-5.4,8.2-12.7,16.6-21.9,25.2c-9.2,8.6-20.6,17.9-34.2,27.9L0,146.4z"/>
</g>
</svg>
