<?xml version="1.0" encoding="utf-8"?>
<!-- Generator: Adobe Illustrator 20.1.0, SVG Export Plug-In . SVG Version: 6.00 Build 0)  -->
<svg version="1.1" id="Livello_1" xmlns="http://www.w3.org/2000/svg" xmlns:xlink="http://www.w3.org/1999/xlink" x="0px" y="0px"
	 viewBox="0 0 200.4 162.6" style="enable-background:new 0 0 200.4 162.6;" xml:space="preserve">
<g>
	<path d="M85.2,16.2c-18.4,14-31.5,27.3-39.3,39.9S34.2,82.6,34.2,97.8c5.2-3.2,11.2-4.8,18-4.8c9.2,0,16.7,3.1,22.5,9.3
		c5.8,6.2,8.7,14.1,8.7,23.7c0,10.8-3.7,19.6-11.1,26.4c-7.4,6.8-17.3,10.2-29.7,10.2C14.2,162.6,0,143.8,0,106.2
		c0-10,1.2-19.3,3.6-27.9c2.4-8.6,6.3-17,11.7-25.2c5.4-8.2,12.7-16.6,21.9-25.2C46.4,19.3,57.8,10,71.4,0L85.2,16.2z M200.4,16.2
		c-18.4,14-31.5,27.3-39.3,39.9c-7.8,12.6-11.7,26.5-11.7,41.7c5.2-3.2,11.2-4.8,18-4.8c9.2,0,16.7,3.1,22.5,9.3
		c5.8,6.2,8.7,14.1,8.7,23.7c0,10.8-3.7,19.6-11.1,26.4c-7.4,6.8-17.3,10.2-29.7,10.2c-28.4,0-42.6-18.8-42.6-56.4
		c0-10,1.2-19.3,3.6-27.9c2.4-8.6,6.3-17,11.7-25.2c5.4-8.2,12.7-16.6,21.9-25.2C161.6,19.3,173,10,186.6,0L200.4,16.2z"/>
</g>
</svg>
